<mxfile host="app.diagrams.net" modified="2023-04-06T04:21:41.155Z" agent="Mozilla/5.0 (Linux; Android 13; 22041216UC) AppleWebKit/537.36 (KHTML, like Gecko) Chrome/111.0.0.0 Mobile Safari/537.36 EdgA/111.0.1661.59" etag="omJN5NEpJKK522kvkebZ" version="21.1.4" type="github">
  <diagram name="Page-1" id="XfsLC-zWp6jkxhG31b5N">
    <mxGraphModel dx="359" dy="632" grid="0" gridSize="10" guides="1" tooltips="1" connect="1" arrows="1" fold="1" page="0" pageScale="1" pageWidth="850" pageHeight="1100" math="0" shadow="0">
      <root>
        <mxCell id="0" />
        <mxCell id="1" parent="0" />
      </root>
    </mxGraphModel>
  </diagram>
</mxfile>
